# xmcd
#
# Track frame offsets: 
#        150
#        15380
#        32954
#        46884
#        70891
#        86599
#        108053
#        126337
#        140332
#        166776
#        180418
#
# Disc length: 2719 seconds
#
# Revision: 1
# Processed by: cddbd v1.5.2PL0 Copyright (c) Steve Scherf et al.
# Submitted via: ExactAudioCopy v1.0b3
#
DISCID=840a9d0b
DTITLE=Tommy Alverson - Me On The Jukebox
DYEAR=2000
DGENRE=Country
TTITLE0=Buy Me a Bar
TTITLE1=Trouobles
TTITLE2=Cowboy Mardi Gras
TTITLE3=Chilihead No Beans
TTITLE4=Lookin' Back to Luckenbach
TTITLE5=I Don't Think I'll Go to Mexico
TTITLE6=Havin' Fun is Hard Work
TTITLE7=Follow Your Heart
TTITLE8=Una Mas Cervesa
TTITLE9=Lovin' You
TTITLE10=Hill Country Here I Come
EXTD=
EXTT0=
EXTT1=
EXTT2=
EXTT3=
EXTT4=
EXTT5=
EXTT6=
EXTT7=
EXTT8=
EXTT9=
EXTT10=
PLAYORDER=
